<svg width="1440" height="807" viewBox="0 0 1440 807" fill="none" xmlns="http://www.w3.org/2000/svg">
<rect width="1440" height="807" fill="#24144C"/>
<mask id="mask0_161_294" style="mask-type:alpha" maskUnits="userSpaceOnUse" x="0" y="0" width="1440" height="807">
<rect width="1440" height="807" fill="#24144C"/>
</mask>
<g mask="url(#mask0_161_294)">
<g filter="url(#filter0_f_161_294)">

<path fill-rule="evenodd" clip-rule="evenodd" d="M485.723 -383.901C644.623 -388.909 842.544 -509.819 944.058 -402.983C1047.67 -293.939 848.357 -144.541 847.777 -2.86627C847.202 137.641 1040.77 284.287 940.793 394.401C842.84 502.284 641.648 416.45 485.723 395.895C363.453 379.777 236.824 367.075 150.057 290.162C63.8481 213.744 50.3988 103.637 35.874 -2.86627C18.3798 -131.142 -46.874 -285.142 59.3289 -375.098C165.401 -464.945 338.023 -379.246 485.723 -383.901Z" fill="#00B1FF"/>
<path fill-rule="evenodd" clip-rule="evenodd" d="M601.295 663.393C715.563 667.874 824.425 570.637 930.144 608.759C1038.98 648.007 1126.71 751.213 1129.8 853.977C1132.84 954.867 994.406 1010.14 944.961 1101.37C905.342 1174.47 922.024 1261.19 872.161 1329.35C800.914 1426.73 733.495 1576.89 601.295 1571.11C466.803 1565.22 424.176 1404.28 349.471 1306.47C301.444 1243.59 281.987 1173.3 245.202 1104.89C200.895 1022.49 111.286 956.169 112.167 865.147C113.185 760.029 141.386 627.011 250.262 582.103C362.463 535.822 477.325 658.533 601.295 663.393Z" fill="#FFB900"/>
<path fill-rule="evenodd" clip-rule="evenodd" d="M853.268 -399.939C975.731 -421.32 1117.05 -425.07 1215.61 -358.114C1313.5 -291.609 1306.79 -165.188 1348.81 -63.3009C1392.71 43.145 1505.6 143.342 1466.94 251.325C1428.27 359.329 1278.28 396.989 1164.56 451.297C1065.92 498.406 964.834 532.202 853.268 544.402C726.392 558.276 567.819 607.028 479.636 526.195C388.177 442.359 497.048 299.788 464.077 187.651C434.669 87.6313 274.217 21.2373 301.629 -79.2133C328.636 -178.178 485.872 -191.25 582.867 -247.643C674.383 -300.851 745.447 -381.115 853.268 -399.939Z" fill="#FFE927"/>
<path fill-rule="evenodd" clip-rule="evenodd" d="M70.4945 213.945C197.415 224.178 251.577 359.931 356.971 422.507C467.839 488.333 663.619 475.49 700.524 588.017C737.783 701.623 558.055 780.88 510.825 891.622C466.896 994.623 545.674 1151.71 436.664 1206.69C323.841 1263.6 198.108 1136.72 70.4945 1113.73C-20.4772 1097.35 -121.488 1135.03 -200.206 1091.98C-280.939 1047.83 -304.13 959.363 -347.327 885.238C-400.327 794.292 -498.648 711.177 -480.902 610.322C-462.636 506.519 -350.06 439.75 -257.192 372.991C-158.296 301.899 -57.0738 203.66 70.4945 213.945Z" fill="#333333"/>
<path fill-rule="evenodd" clip-rule="evenodd" d="M1190.42 310.302C1276.53 303.938 1367.38 291.745 1442.41 329.173C1521.35 368.547 1575.43 439.319 1601.5 515.351C1627.2 590.274 1587.29 665.586 1584.59 743.759C1580.38 865.981 1684.82 1019.24 1581.29 1101.6C1481.75 1180.79 1324.55 1067.94 1190.42 1057.36C1073.68 1048.14 927.623 1118.59 847.731 1043.71C764.238 965.46 876.708 833.339 841.982 730.787C808.953 633.243 623.67 578.117 657.077 480.671C690.187 384.089 859.182 398.908 967.634 364.264C1041.82 340.565 1111.7 316.121 1190.42 310.302Z" fill="#00B1FF"/>
</g>
</g>
<defs>
<filter id="filter0_f_161_294" x="-883.015" y="-846.93" width="2910.24" height="2818.2" filterUnits="userSpaceOnUse" color-interpolation-filters="sRGB">
<feFlood flood-opacity="0" result="BackgroundImageFix"/>
<feBlend mode="normal" in="SourceGraphic" in2="BackgroundImageFix" result="shape"/>
<feGaussianBlur stdDeviation="200" result="effect1_foregroundBlur_161_294"/>
</filter>
</defs>
</svg>
